<?xml version="1.0" standalone="no"?><!DOCTYPE svg PUBLIC "-//W3C//DTD SVG 1.1//EN" "http://www.w3.org/Graphics/SVG/1.1/DTD/svg11.dtd"><svg t="1597997458197" class="icon" viewBox="0 0 1024 1024" version="1.1" xmlns="http://www.w3.org/2000/svg" p-id="21605" width="48" height="48" xmlns:xlink="http://www.w3.org/1999/xlink"><defs><style type="text/css"></style></defs><path d="M512 0c282.7776 0 512 229.2224 512 512s-229.2224 512-512 512S0 794.7776 0 512 229.2224 0 512 0z m-13.4144 774.7072l-199.9872 10.496-51.8144 103.68A458.7008 458.7008 0 0 0 512 972.8c36.0448 0 71.168-4.096 104.8576-11.9808l14.1312-71.0144-132.4032-115.0976z m280.6272-232.0896l-147.6096 18.432-69.2736 201.216 87.1424 75.776 164.352-117.4016-34.6112-178.0224zM484.0448 411.0848l-183.9104 45.8752-78.1824 111.7184-20.7872 29.6448 85.1456 136.2432 235.6736-12.3904 65.536-190.3104-103.4752-120.7808z m401.8688-29.1328l-58.9824 137.6256L865.28 716.8l59.5968 0.0512c30.72-61.696 47.9232-131.2768 47.9232-204.8512 0-35.328-3.9424-69.632-11.4688-102.656l-75.4176-27.392zM51.2 512c0 17.3056 0.9728 34.4064 2.816 51.2h109.2608l25.856-36.9152 72.1408-103.0656-112.5376-154.88-23.8592-6.3488A458.6496 458.6496 0 0 0 51.2 512z m346.2144-374.1184L221.2352 280.9856l87.8592 120.9856 163.072-40.704 76.4416-152.8832-151.1936-70.5024z m422.0928 30.9248l-29.184 41.6256 79.36 111.1552 73.1136 26.5728a461.6192 461.6192 0 0 0-123.2896-179.3536zM512 51.2a462.336 462.336 0 0 0-102.4 11.4176v24.4736l175.1552 81.664 22.3744 10.4448h142.5408l29.7472-42.496A458.7008 458.7008 0 0 0 512 51.2z" p-id="21606" fill="#F7BA52"></path></svg>